<svg xmlns="http://www.w3.org/2000/svg" width="3680" height="440">
<rect width="100%" height="100%" fill="white"/>
<text x="70" y="28" font-size="18" font-family="sans-serif">Distinct-query median latency (log scale)</text>
<line x1="70" y1="370" x2="3610" y2="370" stroke="#444"/>
<rect x="114" y="370.0" width="36" height="0.0" fill="#16a34a"><title>leanreach_session: 0.000 ms</title></rect><rect x="162" y="215.5" width="36" height="154.5" fill="#2563eb"><title>leanreach_process: 142.034 ms</title></rect><rect x="210" y="200.9" width="36" height="169.1" fill="#f97316"><title>rg: 227.757 ms</title></rect><rect x="334" y="370.0" width="36" height="0.0" fill="#16a34a"><title>leanreach_session: 0.000 ms</title></rect><rect x="382" y="222.2" width="36" height="147.8" fill="#2563eb"><title>leanreach_process: 114.633 ms</title></rect><rect x="430" y="202.6" width="36" height="167.4" fill="#f97316"><title>rg: 216.130 ms</title></rect><rect x="554" y="370.0" width="36" height="0.0" fill="#16a34a"><title>leanreach_session: 0.000 ms</title></rect><rect x="602" y="222.1" width="36" height="147.9" fill="#2563eb"><title>leanreach_process: 114.736 ms</title></rect><rect x="650" y="201.1" width="36" height="168.9" fill="#f97316"><title>rg: 226.306 ms</title></rect><rect x="774" y="370.0" width="36" height="0.0" fill="#16a34a"><title>leanreach_session: 0.000 ms</title></rect><rect x="822" y="221.6" width="36" height="148.4" fill="#2563eb"><title>leanreach_process: 116.864 ms</title></rect><rect x="870" y="202.7" width="36" height="167.3" fill="#f97316"><title>rg: 215.177 ms</title></rect><rect x="994" y="370.0" width="36" height="0.0" fill="#16a34a"><title>leanreach_session: 0.000 ms</title></rect><rect x="1042" y="223.0" width="36" height="147.0" fill="#2563eb"><title>leanreach_process: 111.752 ms</title></rect><rect x="1090" y="206.3" width="36" height="163.7" fill="#f97316"><title>rg: 191.763 ms</title></rect><rect x="1214" y="311.9" width="36" height="58.1" fill="#16a34a"><title>leanreach_session: 5.469 ms</title></rect><rect x="1262" y="225.3" width="36" height="144.7" fill="#2563eb"><title>leanreach_process: 103.394 ms</title></rect><rect x="1310" y="206.7" width="36" height="163.3" fill="#f97316"><title>rg: 189.086 ms</title></rect><rect x="1434" y="317.6" width="36" height="52.4" fill="#16a34a"><title>leanreach_session: 4.381 ms</title></rect><rect x="1482" y="224.2" width="36" height="145.8" fill="#2563eb"><title>leanreach_process: 107.319 ms</title></rect><rect x="1530" y="204.2" width="36" height="165.8" fill="#f97316"><title>rg: 204.738 ms</title></rect><rect x="1654" y="324.0" width="36" height="46.0" fill="#16a34a"><title>leanreach_session: 3.381 ms</title></rect><rect x="1702" y="224.3" width="36" height="145.7" fill="#2563eb"><title>leanreach_process: 106.994 ms</title></rect><rect x="1750" y="205.9" width="36" height="164.1" fill="#f97316"><title>rg: 194.150 ms</title></rect><rect x="1874" y="324.3" width="36" height="45.7" fill="#16a34a"><title>leanreach_session: 3.336 ms</title></rect><rect x="1922" y="225.6" width="36" height="144.4" fill="#2563eb"><title>leanreach_process: 102.679 ms</title></rect><rect x="1970" y="205.4" width="36" height="164.6" fill="#f97316"><title>rg: 197.163 ms</title></rect><rect x="2094" y="265.2" width="36" height="104.8" fill="#16a34a"><title>leanreach_session: 27.964 ms</title></rect><rect x="2142" y="221.6" width="36" height="148.4" fill="#2563eb"><title>leanreach_process: 116.579 ms</title></rect><rect x="2190" y="202.8" width="36" height="167.2" fill="#f97316"><title>rg: 214.166 ms</title></rect><rect x="2314" y="309.9" width="36" height="60.1" fill="#16a34a"><title>leanreach_session: 5.896 ms</title></rect><rect x="2362" y="225.7" width="36" height="144.3" fill="#2563eb"><title>leanreach_process: 102.221 ms</title></rect><rect x="2410" y="203.2" width="36" height="166.8" fill="#f97316"><title>rg: 211.915 ms</title></rect><rect x="2534" y="330.7" width="36" height="39.3" fill="#16a34a"><title>leanreach_session: 2.536 ms</title></rect><rect x="2582" y="221.1" width="36" height="148.9" fill="#2563eb"><title>leanreach_process: 118.721 ms</title></rect><rect x="2630" y="202.1" width="36" height="167.9" fill="#f97316"><title>rg: 219.568 ms</title></rect><rect x="2754" y="314.0" width="36" height="56.0" fill="#16a34a"><title>leanreach_session: 5.040 ms</title></rect><rect x="2802" y="370.0" width="36" height="0.0" fill="#2563eb"><title>leanreach_process: 0.000 ms</title></rect><rect x="2850" y="193.6" width="36" height="176.4" fill="#f97316"><title>rg: 288.106 ms</title></rect><rect x="2974" y="279.9" width="36" height="90.1" fill="#16a34a"><title>leanreach_session: 17.067 ms</title></rect><rect x="3022" y="224.5" width="36" height="145.5" fill="#2563eb"><title>leanreach_process: 106.334 ms</title></rect><rect x="3070" y="204.7" width="36" height="165.3" fill="#f97316"><title>rg: 201.630 ms</title></rect><rect x="3194" y="70.0" width="36" height="300.0" fill="#16a34a"><title>leanreach_session: 15367.296 ms</title></rect><rect x="3242" y="218.9" width="36" height="151.1" fill="#2563eb"><title>leanreach_process: 127.620 ms</title></rect><rect x="3290" y="202.3" width="36" height="167.7" fill="#f97316"><title>rg: 217.940 ms</title></rect><rect x="3414" y="287.1" width="36" height="82.9" fill="#16a34a"><title>leanreach_session: 13.364 ms</title></rect><rect x="3462" y="223.1" width="36" height="146.9" fill="#2563eb"><title>leanreach_process: 111.207 ms</title></rect><rect x="3510" y="203.9" width="36" height="166.1" fill="#f97316"><title>rg: 207.146 ms</title></rect><text x="132" y="365.0" text-anchor="middle" font-size="10">0.00</text><text x="180" y="210.5" text-anchor="middle" font-size="10">142.03</text><text x="228" y="195.9" text-anchor="middle" font-size="10">227.76</text><text x="180" y="390" text-anchor="middle" font-size="12">process-baseline</text><text x="180" y="407" text-anchor="middle" font-size="11">process/rg 62.36%</text><text x="352" y="365.0" text-anchor="middle" font-size="10">0.00</text><text x="400" y="217.2" text-anchor="middle" font-size="10">114.63</text><text x="448" y="197.6" text-anchor="middle" font-size="10">216.13</text><text x="400" y="390" text-anchor="middle" font-size="12">mathlib-root-baseline</text><text x="400" y="407" text-anchor="middle" font-size="11">process/rg 53.04%</text><text x="572" y="365.0" text-anchor="middle" font-size="10">0.00</text><text x="620" y="217.1" text-anchor="middle" font-size="10">114.74</text><text x="668" y="196.1" text-anchor="middle" font-size="10">226.31</text><text x="620" y="390" text-anchor="middle" font-size="12">selected-declarations</text><text x="620" y="407" text-anchor="middle" font-size="11">process/rg 50.70%</text><text x="792" y="365.0" text-anchor="middle" font-size="10">0.00</text><text x="840" y="216.6" text-anchor="middle" font-size="10">116.86</text><text x="888" y="197.7" text-anchor="middle" font-size="10">215.18</text><text x="840" y="390" text-anchor="middle" font-size="12">selected-cache-lookup</text><text x="840" y="407" text-anchor="middle" font-size="11">process/rg 54.31%</text><text x="1012" y="365.0" text-anchor="middle" font-size="10">0.00</text><text x="1060" y="218.0" text-anchor="middle" font-size="10">111.75</text><text x="1108" y="201.3" text-anchor="middle" font-size="10">191.76</text><text x="1060" y="390" text-anchor="middle" font-size="12">checkpoint-cache</text><text x="1060" y="407" text-anchor="middle" font-size="11">process/rg 58.28%</text><text x="1232" y="306.9" text-anchor="middle" font-size="10">5.47</text><text x="1280" y="220.3" text-anchor="middle" font-size="10">103.39</text><text x="1328" y="201.7" text-anchor="middle" font-size="10">189.09</text><text x="1280" y="390" text-anchor="middle" font-size="12">lazy-session</text><text x="1280" y="407" text-anchor="middle" font-size="11">session/rg 2.89%</text><text x="1452" y="312.6" text-anchor="middle" font-size="10">4.38</text><text x="1500" y="219.2" text-anchor="middle" font-size="10">107.32</text><text x="1548" y="199.2" text-anchor="middle" font-size="10">204.74</text><text x="1500" y="390" text-anchor="middle" font-size="12">lazy-session-10</text><text x="1500" y="407" text-anchor="middle" font-size="11">session/rg 2.14%</text><text x="1672" y="319.0" text-anchor="middle" font-size="10">3.38</text><text x="1720" y="219.3" text-anchor="middle" font-size="10">106.99</text><text x="1768" y="200.9" text-anchor="middle" font-size="10">194.15</text><text x="1720" y="390" text-anchor="middle" font-size="12">module-session</text><text x="1720" y="407" text-anchor="middle" font-size="11">session/rg 1.74%</text><text x="1892" y="319.3" text-anchor="middle" font-size="10">3.34</text><text x="1940" y="220.6" text-anchor="middle" font-size="10">102.68</text><text x="1988" y="200.4" text-anchor="middle" font-size="10">197.16</text><text x="1940" y="390" text-anchor="middle" font-size="12">single-selection</text><text x="1940" y="407" text-anchor="middle" font-size="11">session/rg 1.69%</text><text x="2112" y="260.2" text-anchor="middle" font-size="10">27.96</text><text x="2160" y="216.6" text-anchor="middle" font-size="10">116.58</text><text x="2208" y="197.8" text-anchor="middle" font-size="10">214.17</text><text x="2160" y="390" text-anchor="middle" font-size="12">reimport-fix</text><text x="2160" y="407" text-anchor="middle" font-size="11">session/rg 13.06%</text><text x="2332" y="304.9" text-anchor="middle" font-size="10">5.90</text><text x="2380" y="220.7" text-anchor="middle" font-size="10">102.22</text><text x="2428" y="198.2" text-anchor="middle" font-size="10">211.91</text><text x="2380" y="390" text-anchor="middle" font-size="12">batteries-pickle</text><text x="2380" y="407" text-anchor="middle" font-size="11">session/rg 2.78%</text><text x="2552" y="325.7" text-anchor="middle" font-size="10">2.54</text><text x="2600" y="216.1" text-anchor="middle" font-size="10">118.72</text><text x="2648" y="197.1" text-anchor="middle" font-size="10">219.57</text><text x="2600" y="390" text-anchor="middle" font-size="12">root-bundle-fallback</text><text x="2600" y="407" text-anchor="middle" font-size="11">session/rg 1.15%</text><text x="2772" y="309.0" text-anchor="middle" font-size="10">5.04</text><text x="2820" y="365.0" text-anchor="middle" font-size="10">0.00</text><text x="2868" y="188.6" text-anchor="middle" font-size="10">288.11</text><text x="2820" y="390" text-anchor="middle" font-size="12">exact-pp-hot</text><text x="2820" y="407" text-anchor="middle" font-size="11">session/rg 1.75%</text><text x="2992" y="274.9" text-anchor="middle" font-size="10">17.07</text><text x="3040" y="219.5" text-anchor="middle" font-size="10">106.33</text><text x="3088" y="199.7" text-anchor="middle" font-size="10">201.63</text><text x="3040" y="390" text-anchor="middle" font-size="12">batteries-free-fresh</text><text x="3040" y="407" text-anchor="middle" font-size="11">session/rg 8.46%</text><text x="3212" y="65.0" text-anchor="middle" font-size="10">15367.30</text><text x="3260" y="213.9" text-anchor="middle" font-size="10">127.62</text><text x="3308" y="197.3" text-anchor="middle" font-size="10">217.94</text><text x="3260" y="390" text-anchor="middle" font-size="12">limit-10-partial-cache</text><text x="3260" y="407" text-anchor="middle" font-size="11">session/rg 7051.16%</text><text x="3432" y="282.1" text-anchor="middle" font-size="10">13.36</text><text x="3480" y="218.1" text-anchor="middle" font-size="10">111.21</text><text x="3528" y="198.9" text-anchor="middle" font-size="10">207.15</text><text x="3480" y="390" text-anchor="middle" font-size="12">pp-limits-cleanup</text><text x="3480" y="407" text-anchor="middle" font-size="11">session/rg 6.45%</text><rect x="3475" y="16" width="11" height="11" fill="#16a34a"/><text x="3492" y="26" font-size="11">leanreach_session</text><rect x="3475" y="34" width="11" height="11" fill="#2563eb"/><text x="3492" y="44" font-size="11">leanreach_process</text><rect x="3475" y="52" width="11" height="11" fill="#f97316"/><text x="3492" y="62" font-size="11">rg</text>
</svg>